# Blender 3.5.0
# www.blender.org
mtllib Hex_beveled.mtl
o Plane
v 0.942265 0.500000 -0.000000
v 1.000000 0.450000 0.000000
v 0.964359 0.496194 -0.000000
v 0.983090 0.485355 -0.000000
v 0.995605 0.469134 -0.000000
v 0.500000 0.450000 -0.866025
v 0.471132 0.500000 -0.816025
v 0.497803 0.469134 -0.862219
v 0.491545 0.485355 -0.851381
v 0.482180 0.496194 -0.835160
v -0.500000 0.450000 -0.866025
v -0.471133 0.500000 -0.816025
v -0.497803 0.469134 -0.862219
v -0.491545 0.485355 -0.851381
v -0.482180 0.496194 -0.835160
v -1.000000 0.450000 0.000000
v -0.942265 0.500000 0.000000
v -0.995605 0.469134 0.000000
v -0.983090 0.485355 0.000000
v -0.964359 0.496194 0.000000
v -0.500000 0.450000 0.866025
v -0.471132 0.500000 0.816025
v -0.497802 0.469134 0.862219
v -0.491545 0.485355 0.851381
v -0.482180 0.496194 0.835160
v 0.500000 0.450000 0.866025
v 0.471132 0.500000 0.816025
v 0.497803 0.469134 0.862219
v 0.491545 0.485355 0.851381
v 0.482180 0.496194 0.835160
v 0.942265 -0.500000 -0.000000
v 1.000000 -0.450000 0.000000
v 0.964359 -0.496194 -0.000000
v 0.983090 -0.485355 -0.000000
v 0.995605 -0.469134 -0.000000
v 0.471132 -0.500000 -0.816025
v 0.500000 -0.450000 -0.866025
v 0.482180 -0.496194 -0.835160
v 0.491545 -0.485355 -0.851381
v 0.497803 -0.469134 -0.862219
v -0.471133 -0.500000 -0.816025
v -0.500000 -0.450000 -0.866025
v -0.482180 -0.496194 -0.835160
v -0.491545 -0.485355 -0.851381
v -0.497803 -0.469134 -0.862219
v -0.942265 -0.500000 0.000000
v -1.000000 -0.450000 0.000000
v -0.964359 -0.496194 0.000000
v -0.983090 -0.485355 0.000000
v -0.995605 -0.469134 0.000000
v -0.471132 -0.500000 0.816025
v -0.500000 -0.450000 0.866025
v -0.482180 -0.496194 0.835160
v -0.491545 -0.485355 0.851381
v -0.497802 -0.469134 0.862219
v 0.471132 -0.500000 0.816025
v 0.500000 -0.450000 0.866025
v 0.482180 -0.496194 0.835160
v 0.491545 -0.485355 0.851381
v 0.497803 -0.469134 0.862219
vn 0.8660 -0.0000 0.5000
vn -0.0000 1.0000 -0.0000
vn -0.8660 -0.0000 -0.5000
vn -0.8660 -0.0000 0.5000
vn -0.0000 -0.0000 1.0000
vn -0.0000 -1.0000 -0.0000
vn -0.0000 -0.0000 -1.0000
vn 0.8494 0.1951 -0.4904
vn 0.7201 0.5556 -0.4157
vn 0.4811 0.8315 -0.2778
vn 0.1690 0.9808 -0.0975
vn -0.0000 0.1951 -0.9808
vn -0.0000 0.5556 -0.8315
vn -0.0000 0.8315 -0.5556
vn -0.0000 0.9808 -0.1951
vn -0.8494 0.1951 -0.4904
vn -0.7201 0.5556 -0.4157
vn -0.4811 0.8315 -0.2778
vn -0.1690 0.9808 -0.0975
vn -0.8494 0.1951 0.4904
vn -0.7201 0.5556 0.4157
vn -0.4811 0.8315 0.2778
vn -0.1690 0.9808 0.0975
vn -0.0000 0.1951 0.9808
vn -0.0000 0.5556 0.8315
vn -0.0000 0.8315 0.5556
vn -0.0000 0.9808 0.1951
vn 0.8494 0.1951 0.4904
vn 0.7201 0.5556 0.4157
vn 0.4811 0.8315 0.2778
vn 0.1690 0.9808 0.0975
vn 0.1690 -0.9808 -0.0975
vn 0.4811 -0.8315 -0.2778
vn 0.7201 -0.5556 -0.4157
vn 0.8494 -0.1951 -0.4904
vn -0.0000 -0.9808 -0.1951
vn -0.0000 -0.8315 -0.5556
vn -0.0000 -0.5556 -0.8315
vn -0.0000 -0.1951 -0.9808
vn -0.1690 -0.9808 -0.0975
vn -0.4811 -0.8315 -0.2778
vn -0.7201 -0.5556 -0.4157
vn -0.8494 -0.1951 -0.4904
vn -0.1690 -0.9808 0.0975
vn -0.4811 -0.8315 0.2778
vn -0.7201 -0.5556 0.4157
vn -0.8494 -0.1951 0.4904
vn -0.0000 -0.9808 0.1951
vn -0.0000 -0.8315 0.5556
vn -0.0000 -0.5556 0.8315
vn -0.0000 -0.1951 0.9808
vn 0.1690 -0.9808 0.0975
vn 0.4811 -0.8315 0.2778
vn 0.7201 -0.5556 0.4157
vn 0.8494 -0.1951 0.4904
vn 0.8660 -0.0000 -0.5000
s 0
usemtl Material.001
f 26//1 57//1 32//1 2//1
f 1//2 7//2 12//2 17//2 22//2 27//2
f 11//3 42//3 47//3 16//3
f 16//4 47//4 52//4 21//4
f 21//5 52//5 57//5 26//5
f 56//6 51//6 46//6 41//6 36//6 31//6
f 6//7 37//7 42//7 11//7
f 2//8 6//8 8//8 5//8
f 5//9 8//9 9//9 4//9
f 4//10 9//10 10//10 3//10
f 3//11 10//11 7//11 1//11
f 6//12 11//12 13//12 8//12
f 8//13 13//13 14//13 9//13
f 9//14 14//14 15//14 10//14
f 10//15 15//15 12//15 7//15
f 11//16 16//16 18//16 13//16
f 13//17 18//17 19//17 14//17
f 14//18 19//18 20//18 15//18
f 15//19 20//19 17//19 12//19
f 16//20 21//20 23//20 18//20
f 18//21 23//21 24//21 19//21
f 19//22 24//22 25//22 20//22
f 20//23 25//23 22//23 17//23
f 21//24 26//24 28//24 23//24
f 23//25 28//25 29//25 24//25
f 24//26 29//26 30//26 25//26
f 25//27 30//27 27//27 22//27
f 26//28 2//28 5//28 28//28
f 28//29 5//29 4//29 29//29
f 29//30 4//30 3//30 30//30
f 30//31 3//31 1//31 27//31
f 31//32 36//32 38//32 33//32
f 33//33 38//33 39//33 34//33
f 34//34 39//34 40//34 35//34
f 35//35 40//35 37//35 32//35
f 36//36 41//36 43//36 38//36
f 38//37 43//37 44//37 39//37
f 39//38 44//38 45//38 40//38
f 40//39 45//39 42//39 37//39
f 41//40 46//40 48//40 43//40
f 43//41 48//41 49//41 44//41
f 44//42 49//42 50//42 45//42
f 45//43 50//43 47//43 42//43
f 46//44 51//44 53//44 48//44
f 48//45 53//45 54//45 49//45
f 49//46 54//46 55//46 50//46
f 50//47 55//47 52//47 47//47
f 51//48 56//48 58//48 53//48
f 53//49 58//49 59//49 54//49
f 54//50 59//50 60//50 55//50
f 55//51 60//51 57//51 52//51
f 56//52 31//52 33//52 58//52
f 58//53 33//53 34//53 59//53
f 59//54 34//54 35//54 60//54
f 60//55 35//55 32//55 57//55
f 2//56 32//56 37//56 6//56
